<svg width="102" height="102" viewBox="0 0 102 102" fill="none" xmlns="http://www.w3.org/2000/svg">
<g clip-path="url(#clip0_1_182)">
<path d="M77.27 31.4301C77.27 31.1648 77.1646 30.9105 76.9771 30.7229C76.7896 30.5354 76.5352 30.4301 76.27 30.4301L25.27 30.5301C25.0126 30.5405 24.7676 30.6435 24.58 30.8201C24.487 30.9091 24.4133 31.0163 24.3634 31.1349C24.3135 31.2536 24.2885 31.3813 24.29 31.5101L24.37 68.2101C24.37 68.4753 24.4754 68.7296 24.6629 68.9172C24.8504 69.1047 25.1048 69.2101 25.37 69.2101H39.37L38.62 70.2101C38.518 70.3724 38.4649 70.5607 38.4669 70.7524C38.469 70.9442 38.5261 71.1313 38.6315 71.2915C38.7368 71.4517 38.8861 71.5782 39.0613 71.6559C39.2366 71.7337 39.4305 71.7594 39.62 71.7301L44 70.8001L44.8 74.9301C44.8394 75.1281 44.9379 75.3096 45.0825 75.4506C45.2271 75.5916 45.411 75.6856 45.61 75.7201H45.8C45.9765 75.717 46.149 75.6673 46.3001 75.5759C46.4511 75.4846 46.5753 75.3549 46.66 75.2001L49.93 69.2001H52.34L55.54 75.3201C55.6255 75.4764 55.7513 75.607 55.9042 75.6984C56.0572 75.7899 56.2318 75.8388 56.41 75.84H56.54C56.74 75.8106 56.9263 75.7213 57.0745 75.5838C57.2226 75.4464 57.3257 75.2672 57.37 75.0701L58.19 71.0001L62.55 72.0001C62.6781 72.0313 62.811 72.037 62.9413 72.0166C63.0715 71.9963 63.1964 71.9505 63.3089 71.8817C63.4214 71.8129 63.5191 71.7226 63.5965 71.6159C63.6739 71.5092 63.7295 71.3883 63.76 71.2601C63.76 71.2601 63.76 71.2001 63.76 71.1601C63.7966 70.9284 63.7506 70.6912 63.63 70.4901L62.76 69.2101H76.36C76.6252 69.2101 76.8796 69.1047 77.0671 68.9172C77.2547 68.7296 77.36 68.4753 77.36 68.2101L77.27 31.4301ZM46.27 71.8501L45.85 69.4801C45.7947 69.2241 45.6411 69 45.4223 68.856C45.2035 68.712 44.937 68.6596 44.68 68.7101L41.77 69.3301L42 69.0001C42.1468 68.8831 42.2577 68.7271 42.32 68.5501L45.75 63.7601C46.8525 64.7197 48.1865 65.3746 49.62 65.6601L48.62 67.5301C48.4984 67.6632 48.4124 67.8248 48.37 68.0001L46.27 71.8501ZM57.77 57.4001C57.7594 59.1091 57.0731 60.7445 55.8609 61.9492C54.6487 63.1539 53.009 63.8301 51.3 63.8301C49.5761 63.8301 47.9228 63.1452 46.7038 61.9262C45.4848 60.7073 44.8 59.054 44.8 57.3301C44.8 55.6061 45.4848 53.9528 46.7038 52.7339C47.9228 51.5149 49.5761 50.8301 51.3 50.8301C53.016 50.8459 54.656 51.5408 55.861 52.7627C57.066 53.9845 57.738 55.634 57.73 57.3501L57.77 57.4001ZM51.06 67.2101L51.23 66.8901L51.39 67.2101H51.06ZM57.72 68.8001C57.4626 68.7428 57.1931 68.7895 56.97 68.9301C56.7535 69.0794 56.6002 69.304 56.54 69.5601L56.06 71.9201L52.77 65.6301C54.22 65.37 55.5756 64.7318 56.7 63.7801L60.59 69.4401L57.72 68.8001ZM61.42 67.1801L58.09 62.3401C59.0093 61.0884 59.565 59.6072 59.6958 58.0598C59.8266 56.5124 59.5274 54.959 58.8312 53.5708C58.1351 52.1827 57.069 51.0138 55.7507 50.1931C54.4323 49.3725 52.9129 48.9319 51.36 48.9201H51.3C49.7489 48.9123 48.2259 49.3336 46.8994 50.1375C45.5728 50.9413 44.4944 52.0964 43.7834 53.4749C43.0724 54.8534 42.7565 56.4018 42.8706 57.9487C42.9847 59.4956 43.5244 60.9808 44.43 62.2401L40.9 67.2401H26.38L26.31 32.5001L75.31 32.4001L75.39 67.1401L61.42 67.1801Z" fill="#623E30"/>
<path d="M60.18 38.26L41.48 38.13C41.2148 38.13 40.9604 38.2354 40.7729 38.4229C40.5854 38.6104 40.48 38.8648 40.48 39.13C40.48 39.3952 40.5854 39.6496 40.7729 39.8371C40.9604 40.0246 41.2148 40.13 41.48 40.13L60.18 40.27C60.4452 40.27 60.6996 40.1646 60.8871 39.9771C61.0746 39.7896 61.18 39.5352 61.18 39.27C61.18 39.0048 61.0746 38.7504 60.8871 38.5629C60.6996 38.3754 60.4452 38.27 60.18 38.27V38.26Z" fill="#623E30"/>
<path d="M60.18 42.68L41.48 42.54C41.2148 42.54 40.9604 42.6454 40.7729 42.8329C40.5854 43.0205 40.48 43.2748 40.48 43.54C40.48 43.8053 40.5854 44.0596 40.7729 44.2471C40.9604 44.4347 41.2148 44.54 41.48 44.54L60.18 44.67C60.4452 44.67 60.6996 44.5647 60.8871 44.3771C61.0746 44.1896 61.18 43.9353 61.18 43.67C61.18 43.4048 61.0746 43.1505 60.8871 42.9629C60.6996 42.7754 60.4452 42.67 60.18 42.67V42.68Z" fill="#623E30"/>
<g opacity="0.7">
<path d="M50.83 101.67C40.7748 101.67 30.9454 98.6883 22.5848 93.1019C14.2242 87.5156 7.70793 79.5754 3.85997 70.2856C0.012007 60.9958 -0.994795 50.7736 0.966878 40.9116C2.92855 31.0496 7.77059 21.9908 14.8807 14.8807C21.9908 7.7706 31.0496 2.92856 40.9116 0.966889C50.7736 -0.994783 60.9958 0.0120184 70.2856 3.85998C79.5754 7.70794 87.5155 14.2242 93.1019 22.5848C98.6883 30.9454 101.67 40.7748 101.67 50.83C101.657 64.3096 96.2962 77.2332 86.7647 86.7647C77.2332 96.2962 64.3095 101.657 50.83 101.67ZM50.83 2.00001C41.1699 2.00001 31.7268 4.86468 23.6949 10.2317C15.663 15.5988 9.40306 23.2271 5.70677 32.1521C2.01048 41.077 1.04387 50.8976 2.92918 60.3719C4.81449 69.8462 9.46705 78.5486 16.2984 85.3786C23.1298 92.2086 31.8332 96.8594 41.3079 98.7428C50.7826 100.626 60.603 99.6575 69.5272 95.9594C78.4514 92.2613 86.0784 85.9998 91.4438 77.9668C96.8092 69.9338 99.672 60.4901 99.67 50.83C99.6541 37.8826 94.5031 25.4702 85.347 16.316C76.1908 7.16175 63.7774 2.01324 50.83 2.00001Z" fill="#623E30"/>
</g>
</g>
<defs>
<clipPath id="clip0_1_182">
<rect width="101.67" height="101.67" fill="white"/>
</clipPath>
</defs>
</svg>
