<svg width="91" height="91" viewBox="0 0 91 91" fill="none" xmlns="http://www.w3.org/2000/svg">
<g clip-path="url(#clip0_1_147)">
<g opacity="0.7">
<path d="M45.4955 91C36.4956 91 27.6978 88.3312 20.2146 83.3311C12.7314 78.331 6.899 71.2242 3.45487 62.9093C0.0107442 54.5945 -0.890396 45.445 0.865404 36.618C2.6212 27.791 6.95509 19.6829 13.319 13.319C19.6829 6.95509 27.791 2.6212 36.618 0.865404C45.445 -0.890396 54.5945 0.0107442 62.9093 3.45487C71.2242 6.899 78.331 12.7314 83.3311 20.2146C88.3312 27.6978 91 36.4956 91 45.4955C90.9882 57.5604 86.1901 69.1278 77.659 77.659C69.1278 86.1901 57.5604 90.9882 45.4955 91ZM45.4955 1.7901C36.8493 1.7901 28.3972 4.35413 21.2082 9.15793C14.0192 13.9617 8.41623 20.7895 5.10786 28.7778C1.79948 36.7661 0.934315 45.556 2.62177 54.036C4.30922 62.516 8.4735 70.3052 14.588 76.4184C20.7024 82.5316 28.4924 86.6943 36.9728 88.38C45.4531 90.0657 54.2429 89.1987 62.2305 85.8887C70.2181 82.5787 77.0447 76.9743 81.847 69.7844C86.6494 62.5944 89.2117 54.1418 89.2099 45.4955C89.1957 33.9069 84.5852 22.7972 76.39 14.6037C68.1948 6.41013 57.0841 1.80195 45.4955 1.7901Z" fill="#623E30"/>
</g>
<path d="M32.0697 29.4204L37.44 31.7923C36.4782 33.2114 35.9201 34.8653 35.8254 36.5771C35.7306 38.2888 36.1028 39.9942 36.9021 41.5108C37.7014 43.0275 38.8978 44.2984 40.3634 45.1879C41.829 46.0773 43.5088 46.5518 45.2231 46.5605C46.9375 46.5693 48.622 46.1121 50.0967 45.2378C51.5713 44.3634 52.7807 43.1048 53.5955 41.5964C54.4103 40.088 54.7999 38.3866 54.7227 36.6739C54.6455 34.9613 54.1044 33.3018 53.1572 31.8728L57.892 29.6441V38.5947L56.451 41.6826C56.4016 41.7866 56.3805 41.9018 56.3899 42.0165C56.3994 42.1313 56.4389 42.2415 56.5047 42.336C56.5737 42.4316 56.6636 42.5103 56.7674 42.5661C56.8713 42.6219 56.9865 42.6534 57.1044 42.6582H59.7895C59.9044 42.6714 60.0204 42.6472 60.1204 42.5891C60.2204 42.531 60.299 42.4423 60.3444 42.336C60.4119 42.2422 60.4526 42.1319 60.4621 42.0168C60.4715 41.9016 60.4494 41.7861 60.3981 41.6826L59.1898 38.6215V29.0087C59.1898 28.6327 59.1898 28.3553 58.5006 28.1136C58.3574 28.1136 45.585 22.3763 45.585 22.3763C45.5007 22.3276 45.405 22.302 45.3076 22.302C45.2101 22.302 45.1145 22.3276 45.0301 22.3763L32.0697 28.1673C31.9513 28.2324 31.8514 28.3265 31.7794 28.4408C31.7074 28.5551 31.6656 28.6858 31.658 28.8207C31.6649 28.9488 31.707 29.0726 31.7796 29.1784C31.8522 29.2842 31.9526 29.3679 32.0697 29.4204ZM53.3004 37.1178C53.3004 39.2614 52.4489 41.3172 50.9331 42.8329C49.4174 44.3486 47.3616 45.2002 45.2181 45.2002C43.0745 45.2002 41.0187 44.3486 39.503 42.8329C37.9873 41.3172 37.1357 39.2614 37.1357 37.1178C37.1518 35.4205 37.6858 33.7686 38.6663 32.383L44.9853 35.2203C45.165 35.2831 45.3606 35.2831 45.5403 35.2203L51.8056 32.4278C52.8003 33.7872 53.325 35.4336 53.3004 37.1178ZM58.1784 41.2977L58.5096 40.6085L58.7871 41.2977H58.1784ZM45.3076 23.7547L56.5942 28.7759L45.3076 33.7882L34.012 28.7759L45.3076 23.7547Z" fill="#623E30"/>
<path d="M45.4955 48.2344C41.1385 48.2415 36.9619 49.9748 33.8802 53.0548C30.7985 56.1349 29.0629 60.3106 29.0534 64.6675C29.0557 64.852 29.13 65.0282 29.2605 65.1586C29.3909 65.2891 29.5671 65.3634 29.7515 65.3657H61.2395C61.4247 65.3657 61.6022 65.2921 61.7332 65.1612C61.8641 65.0303 61.9376 64.8527 61.9376 64.6675C61.9305 60.3098 60.1957 56.1328 57.1135 53.0522C54.0313 49.9717 49.8532 48.2391 45.4955 48.2344ZM30.4944 63.9694C30.6583 60.0948 32.3127 56.4334 35.1122 53.7497C37.9118 51.0661 41.6399 49.5678 45.5179 49.5678C49.3959 49.5678 53.124 51.0661 55.9236 53.7497C58.7231 56.4334 60.3775 60.0948 60.5414 63.9694H30.4944Z" fill="#623E30"/>
</g>
<defs>
<clipPath id="clip0_1_147">
<rect width="91" height="91" fill="white"/>
</clipPath>
</defs>
</svg>
