<svg width="102" height="102" viewBox="0 0 102 102" fill="none" xmlns="http://www.w3.org/2000/svg">
<g clip-path="url(#clip0_1_227)">
<g opacity="0.7">
<path d="M50.83 101.67C40.7748 101.67 30.9454 98.6883 22.5848 93.1019C14.2242 87.5156 7.70793 79.5754 3.85997 70.2856C0.012007 60.9958 -0.994795 50.7736 0.966878 40.9116C2.92855 31.0496 7.77059 21.9908 14.8807 14.8807C21.9908 7.7706 31.0496 2.92856 40.9116 0.966889C50.7736 -0.994783 60.9958 0.0120184 70.2856 3.85998C79.5754 7.70794 87.5155 14.2242 93.1019 22.5848C98.6883 30.9454 101.67 40.7748 101.67 50.83C101.657 64.3096 96.2962 77.2332 86.7647 86.7647C77.2332 96.2962 64.3095 101.657 50.83 101.67ZM50.83 2.00001C41.1699 2.00001 31.7268 4.86468 23.6949 10.2317C15.663 15.5988 9.40306 23.2271 5.70677 32.1521C2.01048 41.077 1.04387 50.8976 2.92918 60.3719C4.81449 69.8462 9.46705 78.5486 16.2984 85.3786C23.1298 92.2086 31.8332 96.8594 41.3079 98.7428C50.7826 100.626 60.603 99.6575 69.5272 95.9594C78.4514 92.2613 86.0784 85.9998 91.4438 77.9668C96.8092 69.9338 99.672 60.4901 99.67 50.83C99.6541 37.8826 94.5031 25.4702 85.347 16.316C76.1908 7.16175 63.7774 2.01324 50.83 2.00001Z" fill="#623E30"/>
</g>
<path d="M48.93 63.2499V55.2499H42.23V30.1699H73.33V55.2499H57L48.93 63.2499ZM44.23 53.2499H50.93V58.4599L56.22 53.2499H71.33V32.1699H44.23V53.2499Z" fill="#623E30"/>
<path d="M44.33 76.5901L36.2 67.9701H28.33V42.8701H43.23V44.8701H30.33V65.9701H37.06L42.33 71.5501V65.9701H58.83V54.5701H60.83V67.9701H44.33V76.5901Z" fill="#623E30"/>
<path d="M50.53 40.0001C49.8139 40.0001 49.1272 39.7156 48.6208 39.2093C48.1145 38.7029 47.83 38.0162 47.83 37.3001C47.83 36.584 48.1145 35.8973 48.6208 35.3909C49.1272 34.8846 49.8139 34.6001 50.53 34.6001C51.2461 34.6001 51.9328 34.8846 52.4392 35.3909C52.9455 35.8973 53.23 36.584 53.23 37.3001C53.23 38.0162 52.9455 38.7029 52.4392 39.2093C51.9328 39.7156 51.2461 40.0001 50.53 40.0001ZM50.53 36.6001C50.343 36.6053 50.1646 36.6802 50.03 36.8101C49.8981 36.9431 49.8241 37.1228 49.8241 37.3101C49.8241 37.4974 49.8981 37.6771 50.03 37.8101C50.0935 37.8754 50.1697 37.9269 50.2541 37.9614C50.3384 37.9958 50.4289 38.0124 50.52 38.0101C50.7068 38.004 50.8848 37.9292 51.02 37.8001C51.0864 37.7374 51.1385 37.6613 51.173 37.5767C51.2075 37.4922 51.2235 37.4013 51.22 37.3101C51.2174 37.1253 51.1428 36.9487 51.0121 36.818C50.8814 36.6873 50.7048 36.6127 50.52 36.6101L50.53 36.6001Z" fill="#623E30"/>
<path d="M58.33 40.0001C57.6139 40.0001 56.9272 39.7156 56.4208 39.2093C55.9145 38.7029 55.63 38.0162 55.63 37.3001C55.63 36.584 55.9145 35.8973 56.4208 35.3909C56.9272 34.8846 57.6139 34.6001 58.33 34.6001C59.0461 34.6001 59.7328 34.8846 60.2392 35.3909C60.7455 35.8973 61.03 36.584 61.03 37.3001C61.03 38.0162 60.7455 38.7029 60.2392 39.2093C59.7328 39.7156 59.0461 40.0001 58.33 40.0001ZM58.33 36.6001C58.1444 36.6001 57.9663 36.6739 57.835 36.8051C57.7038 36.9364 57.63 37.1144 57.63 37.3001C57.63 37.4857 57.7038 37.6638 57.835 37.7951C57.9663 37.9263 58.1444 38.0001 58.33 38.0001C58.4238 38.0053 58.5176 37.989 58.6042 37.9527C58.6908 37.9163 58.768 37.8607 58.83 37.7901C58.8964 37.7274 58.9485 37.6513 58.983 37.5667C59.0175 37.4822 59.0335 37.3913 59.03 37.3001C59.03 37.207 59.0115 37.1148 58.9754 37.0289C58.9393 36.9431 58.8865 36.8653 58.82 36.8001C58.7584 36.7303 58.6832 36.6738 58.5989 36.6342C58.5146 36.5947 58.4231 36.5728 58.33 36.5701V36.6001Z" fill="#623E30"/>
</g>
<defs>
<clipPath id="clip0_1_227">
<rect width="101.67" height="101.67" fill="white"/>
</clipPath>
</defs>
</svg>
