<svg width="102" height="102" viewBox="0 0 102 102" fill="none" xmlns="http://www.w3.org/2000/svg">
<g clip-path="url(#clip0_1_249)">
<g opacity="0.7">
<path d="M50.83 101.67C40.7748 101.67 30.9454 98.6883 22.5848 93.1019C14.2242 87.5156 7.70793 79.5754 3.85997 70.2856C0.012007 60.9958 -0.994795 50.7736 0.966878 40.9116C2.92855 31.0496 7.77059 21.9908 14.8807 14.8807C21.9908 7.7706 31.0496 2.92856 40.9116 0.966889C50.7736 -0.994783 60.9958 0.0120184 70.2856 3.85998C79.5754 7.70794 87.5155 14.2242 93.1019 22.5848C98.6883 30.9454 101.67 40.7748 101.67 50.83C101.657 64.3096 96.2962 77.2332 86.7647 86.7647C77.2332 96.2962 64.3095 101.657 50.83 101.67ZM50.83 2.00001C41.1699 2.00001 31.7268 4.86468 23.6949 10.2317C15.663 15.5988 9.40306 23.2271 5.70677 32.1521C2.01048 41.077 1.04387 50.8976 2.92918 60.3719C4.81449 69.8462 9.46705 78.5486 16.2984 85.3786C23.1298 92.2086 31.8332 96.8594 41.3079 98.7428C50.7826 100.626 60.603 99.6575 69.5272 95.9594C78.4514 92.2613 86.0784 85.9998 91.4438 77.9668C96.8092 69.9338 99.672 60.4901 99.67 50.83C99.6541 37.8826 94.5031 25.4702 85.347 16.316C76.1908 7.16175 63.7774 2.01324 50.83 2.00001Z" fill="#623E30"/>
</g>
<path d="M76.47 56.43L72.09 54V46.51L76.47 44.08C76.5744 44.0213 76.6639 43.9393 76.7315 43.8405C76.7992 43.7416 76.8431 43.6285 76.86 43.51C76.8515 43.3823 76.8078 43.2596 76.7336 43.1554C76.6595 43.0512 76.5578 42.9697 76.44 42.92L53.92 30.15C53.7624 30.0805 53.5922 30.0447 53.42 30.0447C53.2478 30.0447 53.0775 30.0805 52.92 30.15L25.09 45.73C24.9899 45.768 24.9055 45.8384 24.85 45.93C24.802 45.9818 24.7662 46.0437 24.7455 46.1112C24.7247 46.1788 24.7194 46.2501 24.73 46.32V60.06C24.7329 60.1903 24.7744 60.3168 24.8491 60.4236C24.9239 60.5303 25.0286 60.6126 25.15 60.66L47.7 73.28C47.84 73.3796 48.0081 73.4321 48.18 73.43C48.3497 73.4386 48.5167 73.3853 48.65 73.28L76.53 57.67C76.6441 57.6151 76.7425 57.5322 76.8159 57.429C76.8894 57.3258 76.9355 57.2058 76.95 57.08C76.9247 56.9422 76.8684 56.8121 76.7852 56.6994C76.702 56.5868 76.5942 56.4946 76.47 56.43ZM53.47 31.73L74.47 43.45L71 45.34C70.8251 45.3908 70.6619 45.4758 70.52 45.59L48.12 58.07L31.31 48.73C31.25 48.73 31.19 48.73 31.19 48.63L27.19 46.39L53.47 31.73ZM31.63 50.73L47.63 59.67C47.7863 59.7438 47.9571 59.7822 48.13 59.7822C48.3029 59.7822 48.4737 59.7438 48.63 59.67L70.32 47.44V53.51L48.24 65.73L31.6 56.83V50.73H31.63ZM48.15 71.73L26.45 59.61V47.79L29.86 49.67V57.23C29.8709 57.3632 29.9151 57.4916 29.9885 57.6034C30.0619 57.7153 30.1621 57.8069 30.28 57.87L47.86 67.31C47.9981 67.4021 48.1663 67.4379 48.33 67.41C48.4952 67.4106 48.6588 67.3765 48.81 67.31L70.91 55.09L74.4 57.09L48.15 71.73Z" fill="#623E30"/>
<path d="M49.6 38.5099L60.13 44.5799C60.2736 44.671 60.44 44.7195 60.61 44.7199C60.7475 44.7283 60.8848 44.7014 61.0091 44.6419C61.1333 44.5825 61.2403 44.4923 61.32 44.3799C61.4321 44.2445 61.4873 44.071 61.4743 43.8958C61.4612 43.7206 61.3809 43.5572 61.25 43.4399L61.08 43.3299L50.6 37.2499C50.4016 37.1365 50.1703 37.0945 49.9447 37.1309C49.7191 37.1673 49.5127 37.2799 49.36 37.4499C49.3017 37.5144 49.257 37.5898 49.2284 37.6719C49.1998 37.7539 49.188 37.8409 49.1936 37.9276C49.1992 38.0143 49.2221 38.099 49.261 38.1767C49.2999 38.2543 49.3539 38.3235 49.42 38.3799C49.4685 38.4373 49.5303 38.4819 49.6 38.5099Z" fill="#623E30"/>
</g>
<defs>
<clipPath id="clip0_1_249">
<rect width="101.67" height="101.67" fill="white"/>
</clipPath>
</defs>
</svg>
