<svg width="50" height="50" viewBox="0 0 50 50" fill="none" xmlns="http://www.w3.org/2000/svg">
<path d="M25 4.1665C19.4746 4.1665 14.1756 6.36144 10.2686 10.2684C6.36156 14.1755 4.16663 19.4745 4.16663 24.9998C4.16663 30.5252 6.36156 35.8242 10.2686 39.7312C14.1756 43.6382 19.4746 45.8332 25 45.8332C30.5253 45.8332 35.8243 43.6382 39.7313 39.7312C43.6384 35.8242 45.8333 30.5252 45.8333 24.9998C45.8333 19.4745 43.6384 14.1755 39.7313 10.2684C35.8243 6.36144 30.5253 4.1665 25 4.1665Z" fill="#29B6F6"/>
<path d="M35.3645 15.6252L31.4625 35.5481C31.4625 35.5481 31.2948 36.4585 30.1656 36.4585C29.5656 36.4585 29.2562 36.1731 29.2562 36.1731L20.8041 29.1595L16.6687 27.0752L11.3614 25.6637C11.3614 25.6637 10.4166 25.3908 10.4166 24.6095C10.4166 23.9585 11.3885 23.6481 11.3885 23.6481L33.5927 14.8272C33.5927 14.8272 34.2708 14.5825 34.7656 14.5835C35.0697 14.5835 35.4166 14.7137 35.4166 15.1043C35.4166 15.3647 35.3645 15.6252 35.3645 15.6252Z" fill="white"/>
<path d="M23.9583 31.776L20.3896 35.2906C20.3896 35.2906 20.2344 35.4104 20.0271 35.4156C19.9552 35.4176 19.8781 35.4062 19.799 35.3708L20.8031 29.1572L23.9583 31.776Z" fill="#B0BEC5"/>
<path d="M31.1427 18.9541C30.9666 18.7249 30.6416 18.6832 30.4125 18.8572L16.6666 27.0832C16.6666 27.0832 18.8604 33.2207 19.1948 34.2832C19.5302 35.3468 19.7989 35.3718 19.7989 35.3718L20.8031 29.1582L31.0448 19.6832C31.2739 19.5093 31.3166 19.1832 31.1427 18.9541Z" fill="#CFD8DC"/>
</svg>
