<svg width="50" height="50" viewBox="0 0 50 50" fill="none" xmlns="http://www.w3.org/2000/svg">
<path d="M25 4.1665C13.5416 4.1665 4.16663 13.5415 4.16663 24.9998C4.16663 36.4582 13.5416 45.8332 25 45.8332C36.4583 45.8332 45.8333 36.4582 45.8333 24.9998C45.8333 13.5415 36.4583 4.1665 25 4.1665Z" fill="#1876D2"/>
<path d="M26.25 34.5833C16.875 34.5833 11.5625 28.2292 11.3541 17.5H16.0416C16.1458 25.3125 19.6875 28.6458 22.3958 29.2708V17.5H26.7708V24.2708C29.4791 23.9583 32.2916 20.9375 33.2291 17.5H37.6041C36.875 21.6667 33.75 24.7917 31.5625 26.0417C33.75 27.0833 37.2916 29.7917 38.5416 34.5833H33.6458C32.6041 31.3542 30 28.8542 26.5625 28.4375V34.5833H26.25Z" fill="white"/>
</svg>
